<?xml version="1.0" standalone="no"?>
<svg xmlns:xlink="http://www.w3.org/1999/xlink" id="wave" style="transform:rotate(0deg); transition: 0.3s" viewBox="0 0 1440 240" version="1.1" xmlns="http://www.w3.org/2000/svg"><defs><linearGradient id="sw-gradient-0" x1="0" x2="0" y1="1" y2="0"><stop stop-color="rgba(255, 223, 0, 1)" offset="0%"/><stop stop-color="rgba(255, 223, 0, 1)" offset="100%"/></linearGradient></defs><path style="transform:translate(0, 0px); opacity:1" fill="url(#sw-gradient-0)" d="M0,24L20,32C40,40,80,56,120,84C160,112,200,152,240,140C280,128,320,64,360,64C400,64,440,128,480,140C520,152,560,112,600,116C640,120,680,168,720,164C760,160,800,104,840,92C880,80,920,112,960,116C1000,120,1040,96,1080,76C1120,56,1160,40,1200,44C1240,48,1280,72,1320,76C1360,80,1400,64,1440,84C1480,104,1520,160,1560,180C1600,200,1640,184,1680,156C1720,128,1760,88,1800,68C1840,48,1880,48,1920,40C1960,32,2000,16,2040,16C2080,16,2120,32,2160,68C2200,104,2240,160,2280,156C2320,152,2360,88,2400,68C2440,48,2480,72,2520,100C2560,128,2600,160,2640,168C2680,176,2720,160,2760,140C2800,120,2840,96,2860,84L2880,72L2880,240L2860,240C2840,240,2800,240,2760,240C2720,240,2680,240,2640,240C2600,240,2560,240,2520,240C2480,240,2440,240,2400,240C2360,240,2320,240,2280,240C2240,240,2200,240,2160,240C2120,240,2080,240,2040,240C2000,240,1960,240,1920,240C1880,240,1840,240,1800,240C1760,240,1720,240,1680,240C1640,240,1600,240,1560,240C1520,240,1480,240,1440,240C1400,240,1360,240,1320,240C1280,240,1240,240,1200,240C1160,240,1120,240,1080,240C1040,240,1000,240,960,240C920,240,880,240,840,240C800,240,760,240,720,240C680,240,640,240,600,240C560,240,520,240,480,240C440,240,400,240,360,240C320,240,280,240,240,240C200,240,160,240,120,240C80,240,40,240,20,240L0,240Z"/></svg>